<?xml version="1.0" encoding="UTF-8"?><svg id="Layer_1" xmlns="http://www.w3.org/2000/svg" xmlns:xlink="http://www.w3.org/1999/xlink" viewBox="0 0 83.45 83.45"><defs><style>.cls-1{fill:url(#linear-gradient);}.cls-2{fill:#50504f;}.cls-3{fill:url(#linear-gradient-8);}.cls-4{fill:url(#linear-gradient-9);}.cls-5{fill:url(#linear-gradient-3);}.cls-6{fill:url(#linear-gradient-4);}.cls-7{fill:url(#linear-gradient-2);}.cls-8{fill:url(#linear-gradient-6);}.cls-9{fill:url(#linear-gradient-7);}.cls-10{fill:url(#linear-gradient-5);}.cls-11,.cls-12{opacity:.6;}.cls-12{fill:url(#radial-gradient);}.cls-13{fill:url(#linear-gradient-14);}.cls-14{fill:url(#linear-gradient-15);}.cls-15{fill:url(#linear-gradient-16);}.cls-16{fill:url(#linear-gradient-13);}.cls-17{fill:url(#linear-gradient-12);}.cls-18{fill:url(#linear-gradient-10);}.cls-19{fill:url(#linear-gradient-11);}</style><linearGradient id="linear-gradient" x1="-11.04" y1="-21.47" x2="104.38" y2="116.75" gradientUnits="userSpaceOnUse"><stop offset="0" stop-color="#a5a7a9"/><stop offset=".27" stop-color="#c4c5c6"/><stop offset=".54" stop-color="#dcdcdd"/><stop offset=".79" stop-color="#eaebeb"/><stop offset="1" stop-color="#f0f0f0"/></linearGradient><linearGradient id="linear-gradient-2" x1="-3.82" y1="-13.33" x2="83.53" y2="91.28" gradientUnits="userSpaceOnUse"><stop offset="0" stop-color="#fff"/><stop offset=".17" stop-color="#fbfbfb"/><stop offset=".33" stop-color="#f0f0f0"/><stop offset=".48" stop-color="#dededf"/><stop offset=".62" stop-color="#c4c5c5"/><stop offset=".76" stop-color="#a3a4a5"/><stop offset=".9" stop-color="#7b7c7e"/><stop offset="1" stop-color="#595a5c"/></linearGradient><radialGradient id="radial-gradient" cx="42.24" cy="41.87" fx="42.24" fy="41.87" r="35.73" gradientUnits="userSpaceOnUse"><stop offset="0" stop-color="#fff"/><stop offset=".51" stop-color="#fdfdfd"/><stop offset=".7" stop-color="#f6f6f6"/><stop offset=".83" stop-color="#ebeaea"/><stop offset=".94" stop-color="#dbdad9"/><stop offset="1" stop-color="#cecdcc"/></radialGradient><linearGradient id="linear-gradient-3" x1="-2920.21" y1="1512.96" x2="-2917.04" y2="1515.26" gradientTransform="translate(28917.74 15023.95) scale(9.9 -9.9)" gradientUnits="userSpaceOnUse"><stop offset="0" stop-color="#919396"/><stop offset="1" stop-color="#414142"/></linearGradient><linearGradient id="linear-gradient-4" x1="-2920.29" y1="1540.32" x2="-2919.2" y2="1539.9" gradientTransform="translate(28917.74 -15206.67) scale(9.9)" xlink:href="#linear-gradient-3"/><linearGradient id="linear-gradient-5" x1="-2919.58" y1="1512.91" x2="-2917.48" y2="1515.01" xlink:href="#linear-gradient-3"/><linearGradient id="linear-gradient-6" x1="-2343.82" y1="1079.52" x2="-2341.6" y2="1081.74" gradientTransform="translate(-23125.18 -10651.85) rotate(-180) scale(9.9 -9.9)" xlink:href="#linear-gradient-3"/><linearGradient id="linear-gradient-7" x1="-2916.2" y1="1515" x2="-2917.4" y2="1513.41" xlink:href="#linear-gradient-3"/><linearGradient id="linear-gradient-8" x1="-2916.72" y1="1513.74" x2="-2917.21" y2="1512.9" xlink:href="#linear-gradient-3"/><linearGradient id="linear-gradient-9" x1="-2915.29" y1="1513.84" x2="-2916.17" y2="1512.64" xlink:href="#linear-gradient-3"/><linearGradient id="linear-gradient-10" x1="-2920.21" y1="1512.93" x2="-2917.04" y2="1515.22" gradientTransform="translate(28917.74 15023.95) scale(9.9 -9.9)" gradientUnits="userSpaceOnUse"><stop offset="0" stop-color="#5c2580"/><stop offset=".24" stop-color="#365ea9"/><stop offset=".44" stop-color="#248acb"/><stop offset=".53" stop-color="#2b9cd7"/><stop offset=".57" stop-color="#268dcd"/><stop offset=".71" stop-color="#365ea9"/><stop offset=".84" stop-color="#483d91"/><stop offset=".94" stop-color="#582885"/><stop offset="1" stop-color="#5c2580"/></linearGradient><linearGradient id="linear-gradient-11" x1="-2920.29" y1="1540.35" x2="-2919.2" y2="1539.94" gradientTransform="translate(28917.74 -15206.67) scale(9.9)" gradientUnits="userSpaceOnUse"><stop offset=".01" stop-color="#2168ab"/><stop offset="1" stop-color="#1c8ece"/></linearGradient><linearGradient id="linear-gradient-12" x1="-2919.58" y1="1512.88" x2="-2917.48" y2="1514.98" gradientTransform="translate(28917.74 15023.95) scale(9.9 -9.9)" gradientUnits="userSpaceOnUse"><stop offset=".11" stop-color="#223a79"/><stop offset=".26" stop-color="#185ca5"/><stop offset=".44" stop-color="#1983c6"/><stop offset=".53" stop-color="#2092d1"/><stop offset=".59" stop-color="#1d86c8"/><stop offset=".7" stop-color="#1b66ae"/><stop offset=".84" stop-color="#243878"/><stop offset=".84" stop-color="#253775"/></linearGradient><linearGradient id="linear-gradient-13" x1="-2343.82" y1="1079.55" x2="-2341.6" y2="1081.77" gradientTransform="translate(-23125.18 -10651.85) rotate(-180) scale(9.9 -9.9)" gradientUnits="userSpaceOnUse"><stop offset="0" stop-color="#e61674"/><stop offset=".01" stop-color="#e11675"/><stop offset=".13" stop-color="#b2187a"/><stop offset=".24" stop-color="#8d1d80"/><stop offset=".35" stop-color="#712381"/><stop offset=".44" stop-color="#612480"/><stop offset=".52" stop-color="#5c2580"/><stop offset=".6" stop-color="#4f338a"/><stop offset=".78" stop-color="#375ca7"/><stop offset="1" stop-color="#2b9cd7"/></linearGradient><linearGradient id="linear-gradient-14" x1="-2916.2" y1="1514.97" x2="-2917.4" y2="1513.37" gradientTransform="translate(28917.74 15023.95) scale(9.9 -9.9)" gradientUnits="userSpaceOnUse"><stop offset="0" stop-color="#2e2b73"/><stop offset=".49" stop-color="#40277b"/><stop offset="1" stop-color="#1c8acb"/></linearGradient><linearGradient id="linear-gradient-15" x1="-2916.72" y1="1513.7" x2="-2917.21" y2="1512.87" gradientTransform="translate(28917.74 15023.95) scale(9.9 -9.9)" gradientUnits="userSpaceOnUse"><stop offset="0" stop-color="#283479"/><stop offset="1" stop-color="#208ccd"/></linearGradient><linearGradient id="linear-gradient-16" x1="-2915.29" y1="1513.8" x2="-2916.17" y2="1512.61" gradientTransform="translate(28917.74 15023.95) scale(9.9 -9.9)" gradientUnits="userSpaceOnUse"><stop offset="0" stop-color="#883b87"/><stop offset=".5" stop-color="#602480"/><stop offset=".67" stop-color="#51348b"/><stop offset=".91" stop-color="#34539b"/></linearGradient></defs><g><g class="cls-11"><path class="cls-2" d="M67.49,13.69c12.87,15.08,10.6,39.72-5.06,55.05-15.66,15.33-38.78,15.53-51.64,.46C-2.08,54.12,.18,29.47,15.84,14.14c15.66-15.33,38.78-15.53,51.65-.45Z"/></g><path class="cls-1" d="M41.73,4.39c20.58,0,37.33,16.75,37.33,37.33s-16.75,37.33-37.33,37.33S4.39,62.31,4.39,41.73,21.14,4.39,41.73,4.39h0Zm0-4.39C18.68,0,0,18.68,0,41.73s18.68,41.72,41.73,41.72,41.73-18.68,41.73-41.72S64.77,0,41.73,0h0Z"/><path class="cls-7" d="M81.03,41.83c0,21.43-17.37,38.8-38.79,38.8S3.44,63.25,3.44,41.83,20.81,3.03,42.24,3.03s38.79,17.37,38.79,38.8Z"/><path class="cls-12" d="M77.97,41.87c0,19.73-16,35.73-35.73,35.73S6.51,61.61,6.51,41.87,22.5,6.14,42.24,6.14s35.73,16,35.73,35.73Z"/></g><g><g><path class="cls-5" d="M42.95,25.09c-6.51,0-11.81,5.3-11.81,11.81v6.21h0v3.4c0,1.66-1.27,3.03-2.89,3.1-.84,.05-1.64-.25-2.25-.84-.61-.58-.94-1.36-.94-2.2V29.52c0-2.42-1.97-4.38-4.38-4.38s-4.38,1.97-4.38,4.38v15.89c0,6.51,5.3,11.81,11.81,11.81s11.52-5.01,11.81-11.28c0-.13,.02-.24,.02-.37v-9.76c0-1.66,1.27-3.03,2.89-3.11h.15c.78,0,1.52,.29,2.09,.84,.61,.58,.94,1.36,.94,2.2v13.16c0,2.42,1.97,4.38,4.38,4.38s4.38-1.97,4.38-4.38v-11.99c0-6.52-5.3-11.82-11.81-11.82Z"/><path class="cls-6" d="M20.66,25.13c-2.42,0-4.38,1.97-4.38,4.38v10.34c4.95,.76,7.5,3.03,8.78,4.84v-15.17c0-2.41-1.97-4.39-4.39-4.39Z"/><path class="cls-10" d="M39.43,28.25c-.4-.02-5.13-.49-7.35,4.05-.7,1.43-.94,3.01-.94,4.61v.51h0v9.09c.06,1.22-.75,2.59-2.32,3.03-1.23,.34-3.73-.35-3.76-3.07-.08,6.17,3.43,8.34,6.84,8.43,2.44,.06,5.66-1.19,7.07-4.88,.51-1.33,.84-2.7,.91-4.12,0-.11,.03-.21,.03-.32v-9.76c0-1.64,1.24-3.04,2.84-3.11,2.51-.1,3.17,2.1,3.21,2.59-.17-5.39-4.67-6.94-6.52-7.04Z"/><path class="cls-8" d="M57.81,25.09c-6.51,0-11.81,5.3-11.81,11.81v11.98c0,2.42,1.97,4.38,4.38,4.38s4.38-1.97,4.38-4.38v-13.08c0-1.66,1.27-3.03,2.89-3.11h.15c.78,0,1.52,.29,2.09,.84,.61,.58,.94,1.36,.94,2.2v16.84c0,2.42,1.97,4.38,4.38,4.38s4.38-1.97,4.38-4.38v-15.66c.03-6.52-5.27-11.82-11.79-11.82Z"/><path class="cls-9" d="M54.3,28.26c-.4-.02-5.13-.49-7.35,4.05-.02,.03-.03,.07-.04,.11-.55,1.33-.86,2.77-.88,4.29,0,.08,0,.15,0,.22v.24h0v11.7c.02,2.05,1.45,3.81,3.37,4.29,.33,.08,.67,.14,1.03,.14,.27,0,.55-.03,.81-.08,2.03-.39,3.58-2.23,3.58-4.36v-13.06c0-1.66,1.26-3.03,2.88-3.11h.15c.46,0,.92,.11,1.32,.3,.03,.02,.06,.03,.09,.05,.17,.09,.31,.19,.46,.3,.02,.02,.04,.03,.06,.05,.06,.05,.12,.11,.18,.16,.51,.49,.81,1.08,.9,1.77h0c-.2-5.37-4.68-6.95-6.53-7.05Z"/><path class="cls-3" d="M46,48.89c0,2.42,1.97,4.38,4.38,4.38s4.38-1.97,4.38-4.38v-5.96c-.2,0-.42,0-.67,0-.96,0-2.28,.08-3.71,.41-2.58,.59-4.38,2.88-4.38,5.56Z"/><path class="cls-4" d="M60.85,37.58v14.98c0,2.42,1.97,4.38,4.38,4.38s4.38-1.97,4.38-4.38v-10.14c-4.94-.76-7.49-3.03-8.77-4.84Z"/></g><g><path class="cls-18" d="M42.95,25.42c-6.51,0-11.81,5.3-11.81,11.81v6.21h0v3.4c0,1.66-1.27,3.03-2.89,3.1-.84,.05-1.64-.25-2.25-.84-.61-.58-.94-1.36-.94-2.2V29.85c0-2.42-1.97-4.38-4.38-4.38s-4.38,1.97-4.38,4.38v15.89c0,6.51,5.3,11.81,11.81,11.81s11.52-5.01,11.81-11.28c0-.13,.02-.24,.02-.37v-9.76c0-1.66,1.27-3.03,2.89-3.11h.15c.78,0,1.52,.29,2.09,.84,.61,.58,.94,1.36,.94,2.2v13.16c0,2.42,1.97,4.38,4.38,4.38s4.38-1.97,4.38-4.38v-11.99c0-6.52-5.3-11.82-11.81-11.82Z"/><path class="cls-19" d="M20.66,25.46c-2.42,0-4.38,1.97-4.38,4.38v10.34c4.95,.76,7.5,3.03,8.78,4.84v-15.17c0-2.41-1.97-4.39-4.39-4.39Z"/><path class="cls-17" d="M39.43,28.58c-.4-.02-5.13-.49-7.35,4.05-.7,1.43-.94,3.01-.94,4.61v.51h0v9.09c.06,1.22-.75,2.59-2.32,3.03-1.23,.34-3.73-.35-3.76-3.07-.08,6.17,3.43,8.34,6.84,8.43,2.44,.06,5.66-1.19,7.07-4.88,.51-1.33,.84-2.7,.91-4.12,0-.11,.03-.21,.03-.32v-9.76c0-1.64,1.24-3.04,2.84-3.11,2.51-.1,3.17,2.1,3.21,2.59-.17-5.39-4.67-6.94-6.52-7.04Z"/><path class="cls-16" d="M57.81,25.42c-6.51,0-11.81,5.3-11.81,11.81v11.98c0,2.42,1.97,4.38,4.38,4.38s4.38-1.97,4.38-4.38v-13.08c0-1.66,1.27-3.03,2.89-3.11h.15c.78,0,1.52,.29,2.09,.84,.61,.58,.94,1.36,.94,2.2v16.84c0,2.42,1.97,4.38,4.38,4.38s4.38-1.97,4.38-4.38v-15.66c.03-6.52-5.27-11.82-11.79-11.82Z"/><path class="cls-13" d="M54.3,28.59c-.4-.02-5.13-.49-7.35,4.05-.02,.03-.03,.07-.04,.11-.55,1.33-.86,2.77-.88,4.29,0,.08,0,.15,0,.22v.24h0v11.7c.02,2.05,1.45,3.81,3.37,4.29,.33,.08,.67,.14,1.03,.14,.27,0,.55-.03,.81-.08,2.03-.39,3.58-2.23,3.58-4.36v-13.06c0-1.66,1.26-3.03,2.88-3.11h.15c.46,0,.92,.11,1.32,.3,.03,.02,.06,.03,.09,.05,.17,.09,.31,.19,.46,.3,.02,.02,.04,.03,.06,.05,.06,.05,.12,.11,.18,.16,.51,.49,.81,1.08,.9,1.77h0c-.2-5.37-4.68-6.95-6.53-7.05Z"/><path class="cls-14" d="M46,49.22c0,2.42,1.97,4.38,4.38,4.38s4.38-1.97,4.38-4.38v-5.96c-.2,0-.42,0-.67,0-.96,0-2.28,.08-3.71,.41-2.58,.59-4.38,2.88-4.38,5.56Z"/><path class="cls-15" d="M60.85,37.91v14.98c0,2.42,1.97,4.38,4.38,4.38s4.38-1.97,4.38-4.38v-10.14c-4.94-.76-7.49-3.03-8.77-4.84Z"/></g></g></svg>